<svg version="1.2" xmlns="http://www.w3.org/2000/svg" viewBox="0 0 400 120" width="400" height="120">
	<title>card1-svg</title>
	<style>
		tspan { white-space:pre } 
		.s0 { fill: #000000;stroke: #e4e2e2;stroke-opacity: 0 } 
		.s1 { fill: #9f4bff } 
		.t2 { font-size: 13px;fill: #9745f5;font-weight: 400;font-family: "LiberationSans", "Liberation Sans" } 
		.t3 { font-size: 13px;fill: #ffffff;font-weight: 400;font-family: "LiberationSans", "Liberation Sans" } 
		.s4 { fill: #000080 } 
	</style>
	<path id="Layer" class="s0" d="m0.5 5c0-2.5 2-4.5 4.5-4.5h390c2.5 0 4.5 2 4.5 4.5v109.8c0 2.5-2 4.5-4.5 4.5h-390c-2.5 0-4.5-2-4.5-4.5z"/>
	<g id="Layer">
		<g id="Layer">
			<g id="Layer">
				<path id="Layer" fill-rule="evenodd" class="s1" d="m27 24.5q0-0.5 0.2-1 0.2-0.4 0.5-0.8 0.4-0.3 0.8-0.5 0.5-0.2 1-0.2h8.8q0.1 0 0.2 0.1 0.2 0 0.3 0.1 0.1 0.1 0.1 0.3 0.1 0.1 0.1 0.3v12.4q0 0.2-0.1 0.3 0 0.2-0.1 0.3-0.1 0.1-0.3 0.1-0.1 0.1-0.3 0.1h-2.5q-0.3 0-0.5-0.2-0.2-0.2-0.2-0.6 0-0.3 0.2-0.5 0.2-0.2 0.5-0.2h1.8v-2h-8q-0.3 0-0.6 0.2-0.2 0.1-0.3 0.4-0.1 0.3-0.1 0.6 0.1 0.3 0.3 0.5 0.2 0.2 0.2 0.5 0 0.3-0.2 0.6-0.2 0.2-0.6 0.2-0.3 0-0.5-0.3-0.2-0.1-0.3-0.3-0.1-0.2-0.2-0.5-0.1-0.2-0.2-0.4 0-0.3 0-0.5zm2.5-1q-0.2 0-0.4 0.1-0.2 0.1-0.3 0.2-0.1 0.1-0.2 0.3-0.1 0.2-0.1 0.4v6.7q0.5-0.2 1-0.2h8v-7.5zm0.5 10.7q0-0.1 0.1-0.1 0-0.1 0.1-0.1 0 0 0 0h3.5q0.1 0 0.1 0 0.1 0 0.1 0.1 0.1 0 0.1 0.1 0 0 0 0.1v3.2q0 0.1 0 0.1-0.1 0.1-0.1 0.1-0.1 0.1-0.2 0 0 0-0.1 0l-1.5-1.1q0 0 0 0-0.1 0-0.1 0 0 0-0.1 0 0 0 0 0l-1.5 1.1q-0.1 0-0.1 0-0.1 0.1-0.2 0 0 0-0.1-0.1 0 0 0-0.1v-3.3q0 0 0 0z"/>
			</g>
		</g>
		<g id="Layer">
			<text id="Dallas County RP V2" style="transform: matrix(1,0,0,1,50,35)" >
				<tspan x="0" y="0" class="t2">D</tspan><tspan  y="0" class="t2">a</tspan><tspan  y="0" class="t2">l</tspan><tspan  y="0" class="t2">l</tspan><tspan  y="0" class="t2">a</tspan><tspan  y="0" class="t2">s</tspan><tspan  y="0" class="t2"> </tspan><tspan  y="0" class="t2">C</tspan><tspan  y="0" class="t2">o</tspan><tspan  y="0" class="t2">u</tspan><tspan  y="0" class="t2">n</tspan><tspan  y="0" class="t2">t</tspan><tspan  y="0" class="t2">y</tspan><tspan  y="0" class="t2"> </tspan><tspan  y="0" class="t2">R</tspan><tspan  y="0" class="t2">P</tspan><tspan  y="0" class="t2"> </tspan><tspan  y="0" class="t2">V</tspan><tspan  y="0" class="t2">2
</tspan>
			</text>
		</g>
	</g>
	<g id="Layer">
		<text id="Roblox Roleplay Game" style="transform: matrix(1,0,0,1,25,65.6)" >
			<tspan x="0" y="0" class="t3">R</tspan><tspan  y="0" class="t3">o</tspan><tspan  y="0" class="t3">b</tspan><tspan  y="0" class="t3">l</tspan><tspan  y="0" class="t3">o</tspan><tspan  y="0" class="t3">x</tspan><tspan  y="0" class="t3"> </tspan><tspan  y="0" class="t3">R</tspan><tspan  y="0" class="t3">o</tspan><tspan  y="0" class="t3">l</tspan><tspan  y="0" class="t3">e</tspan><tspan  y="0" class="t3">p</tspan><tspan  y="0" class="t3">l</tspan><tspan  y="0" class="t3">a</tspan><tspan  y="0" class="t3">y</tspan><tspan  y="0" class="t3"> </tspan><tspan  y="0" class="t3">G</tspan><tspan  y="0" class="t3">a</tspan><tspan  y="0" class="t3">m</tspan><tspan  y="0" class="t3">e
</tspan>
		</text>
		<g id="Layer">
			<g id="Layer">
				<g id="Layer">
					<path id="Layer" class="s4" d="m30 101c-3.3 0-6-2.7-6-6 0-3.3 2.7-6 6-6 3.3 0 6 2.7 6 6 0 3.3-2.7 6-6 6z"/>
					<text id="Scripting &amp; Building" style="transform: matrix(1,0,0,1,45,95)" >
						<tspan x="0" y="0" class="t3">S</tspan><tspan  y="0" class="t3">c</tspan><tspan  y="0" class="t3">r</tspan><tspan  y="0" class="t3">i</tspan><tspan  y="0" class="t3">p</tspan><tspan  y="0" class="t3">t</tspan><tspan  y="0" class="t3">i</tspan><tspan  y="0" class="t3">n</tspan><tspan  y="0" class="t3">g</tspan><tspan  y="0" class="t3"> </tspan><tspan  y="0" class="t3">&amp;</tspan><tspan  y="0" class="t3"> </tspan><tspan  y="0" class="t3">B</tspan><tspan  y="0" class="t3">u</tspan><tspan  y="0" class="t3">i</tspan><tspan  y="0" class="t3">l</tspan><tspan  y="0" class="t3">d</tspan><tspan  y="0" class="t3">i</tspan><tspan  y="0" class="t3">n</tspan><tspan  y="0" class="t3">g</tspan><tspan  y="0" class="t3">
</tspan>
					</text>
				</g>
			</g>
			<g id="Layer">
				<g id="Layer">
					<g id="Layer">
					</g>
				</g>
				<g id="Layer">
				</g>
			</g>
		</g>
	</g>
</svg>